<?xml version="1.0" encoding="UTF-8"?>
<svg enable-background="new 0 0 2000 1500" version="1.1" viewBox="0 0 2000 1500" xmlns="http://www.w3.org/2000/svg">
 <rect width="2e3" height="1500" enable-background="new " fill="#4EC2ED" opacity=".9"/>
 <polygon points="0 1502.4 2e3 0 0 0" enable-background="new " fill="#8ED2EF" opacity=".5"/>
 <rect x="369.86" y="105.18" width="755.8" height="606.93" fill="#0086CD"/>
 <circle cx="553.22" cy="298.03" r="133.24" fill="#FFEC00"/>
 <path d="m1059.2 218.66c-0.158-4.356-3.737-7.837-8.131-7.837-2.465 0-4.673 1.098-6.164 2.827-0.649-3.328-3.581-5.842-7.1-5.842-1.463 0-2.825 0.438-3.963 1.183-0.63-8.749-7.927-15.653-16.837-15.653-8.102 0-14.869 5.703-16.508 13.31-1.65-1.143-3.649-1.813-5.81-1.813-5.637 0-10.207 4.57-10.207 10.207 0 1.274 0.234 2.492 0.661 3.618h74.059z" fill="#fff"/>
 <path d="m770.53 526.33c0.037-0.224 0.084-0.444 0.11-0.673 0.152 0.23 0.316 0.451 0.479 0.673h32.48c0.149-0.204 0.3-0.405 0.442-0.615 0.05 0.207 0.108 0.409 0.16 0.615h172.4c-3.187-7.259-10.435-12.33-18.87-12.33-6.272 0-11.887 2.807-15.666 7.229-1.373-13.73-12.96-24.449-27.05-24.449-6.362 0-12.208 2.189-16.839 5.849-5.298-21.021-24.325-36.583-46.992-36.583-22.908 0-42.09 15.898-47.148 37.259-3.608-5.362-9.733-8.891-16.683-8.891-11.087 0-20.077 8.981-20.094 20.064-2.697-3.189-6.726-5.217-11.23-5.217-8.121 0-14.705 6.584-14.705 14.706 0 0.804 0.067 1.594 0.192 2.363h29.009z" fill="#fff"/>
 <path d="m380.12 364.35h250.74c-0.833-22.812-19.576-41.051-42.59-41.051-12.91 0-24.468 5.745-32.287 14.811-3.401-17.438-18.753-30.6-37.183-30.6-7.667 0-14.798 2.284-20.761 6.198-3.296-45.829-41.514-81.984-88.182-81.984-10.435 0-20.442 1.815-29.735 5.134v127.49z" fill="#fff"/>
 <path d="m353.03 87.368v637.71h792.42v-637.71h-792.42zm755.52 608.02h-718.62v-578.34h718.62v578.34z" fill="#E75411"/>
 <path d="m1113.6 881.46v536.23c0 11.022 8.731 19.957 19.495 19.957h419.72c10.769 0 19.494-8.935 19.494-19.957v-536.23c0-11.021-8.727-19.957-19.494-19.957h-419.72c-10.764 0-19.495 8.935-19.495 19.957zm76.35 297.1c0-18.375 14.547-33.261 32.488-33.261h227.37c17.946 0 32.494 14.886 32.494 33.261v115.29c0 18.363-14.548 33.259-32.494 33.259h-227.37c-17.941 0-32.488-14.896-32.488-33.259v-115.29zm0-189.7c0-11.021 8.729-19.955 19.495-19.955h253.36c10.769 0 19.498 8.936 19.498 19.955v69.174c0 11.023-8.729 19.95-19.498 19.95h-253.36c-10.767 0-19.495-8.927-19.495-19.95v-69.174z" fill="#058181"/>
 <path d="m460.86 866.02h6.104c10.769 0 19.496 8.934 19.496 19.957v531.71c0 11.022-8.728 19.957-19.496 19.957h-6.104c-10.769 0-19.496-8.935-19.496-19.957v-531.71c0-11.024 8.728-19.957 19.496-19.957z" fill="#058181"/>
 <path d="m409.42 845.51h1179.6c10.769 0 19.496 8.929 19.496 19.95v12.039c0 11.021-8.728 19.948-19.496 19.948h-1179.6c-10.767 0-19.495-8.929-19.495-19.948v-12.039c0-11.022 8.728-19.95 19.495-19.95z" fill="#046781"/>
 <path d="m1364.7 1006.7c0 5.225-4.232 9.456-9.457 9.456h-38.155c-5.226 0-9.455-4.231-9.455-9.456 0-5.222 4.229-9.456 9.455-9.456h38.155c5.225 0 9.457 4.235 9.457 9.456z" fill="#058181"/>
 <path d="m1215.4 1209.2c5.223 0 9.455 4.234 9.455 9.458v38.155c0 5.224-4.232 9.456-9.455 9.456-5.228 0-9.459-4.232-9.459-9.456v-38.155c0-5.223 4.233-9.458 9.459-9.458z" fill="#058181"/>
 <path d="m615.22 576.29c0-6.137 4.979-11.112 11.118-11.112h360.07c6.137 0 11.116 4.976 11.116 11.112v242.44c0 6.137-4.979 11.113-11.116 11.113h-360.07c-6.139 0-11.118-4.978-11.118-11.113l1e-3 -242.44z" fill="#fff"/>
 <path d="m974.02 814.76c0 6.136-4.979 11.111-11.113 11.111h-313.02c-6.139 0-11.116-4.977-11.116-11.111v-216.95c0-6.138 4.978-11.116 11.116-11.116h313.02c6.136 0 11.113 4.979 11.113 11.116v216.95z" fill="#D6D7D6"/>
 <g opacity=".41">
  <path d="m962.42 588.68h-211.65l221.3 154.88v-143.77c1e-3 -8.334-4.202-11.114-9.647-11.114z" fill="#C3C3C3"/>
 </g>
 <path d="m549.16 816.08c-6.138 0-8.954 5.235-7.195 11.114 0.585 1.959 1.784 6.511 2.29 8.493 1.52 5.947 6.608 9.8 12.748 9.8h496.8c6.138 0 11.229-3.853 12.746-9.8 0.508-1.982 1.706-6.534 2.292-8.493 1.76-5.879-1.057-11.114-7.196-11.114h-512.49z" fill="#fff"/>
 <g opacity=".2">
  <path d="m752.45 816.08v6.529c0 6.141 4.979 11.115 11.116 11.115h85.604c6.136 0 11.115-4.976 11.115-11.115v-6.529h-107.84z" fill="#9EB6C9"/>
 </g>
 <path d="m772.78 816.08h-18.284c0.652 5.518 5.338 9.802 11.034 9.802h81.681c5.695 0 10.382-4.282 11.031-9.802h-85.462z" fill="#9EA09F"/>
 <g opacity=".2">
  <path d="m1064.8 837.68h-518.88c2.351 3.664 6.39 5.883 11.045 5.883h496.8c4.652 0 8.695-2.219 11.046-5.883h-0.011z" fill="#9EB6C9"/>
 </g>
 <path d="m809.99 575.2c0 2.539-2.059 4.602-4.604 4.602-2.541 0-4.602-2.063-4.602-4.602 0-2.543 2.061-4.601 4.602-4.601 2.547 1e-3 4.604 2.058 4.604 4.601z" fill="#9EA09F"/>
 <path d="m1378.1 784.1c0-22.384-18.081-40.528-40.429-40.667v-5.433c0-9.263-7.51-16.77-16.771-16.77h-67.031c-9.26 0-16.771 7.507-16.771 16.77v90.7c0 9.262 7.512 16.771 16.771 16.771h67.031c9.262 0 16.771-7.509 16.771-16.771v-3.935c22.348-0.136 40.429-18.285 40.429-40.665zm-40.427 22.918v-45.84c12.547 0.136 22.678 10.339 22.678 22.921 0 12.58-10.131 22.784-22.678 22.919z" fill="#E75411"/>
 <path d="m1337.7 743.47v-5.432c0-9.262-7.51-16.768-16.773-16.768h-21.682v124.24h21.682c9.265 0 16.773-7.506 16.773-16.769v-3.935c22.348-0.141 40.429-18.288 40.429-40.669s-18.081-40.529-40.429-40.667zm0 63.588v-45.838c12.55 0.135 22.678 10.337 22.678 22.92 0 12.579-10.128 22.783-22.678 22.918z" fill="#C4490B"/>
 <path d="m1271.9 712.11s7.34-11.296 5.601-14.675c-1.739-3.38-14.193-16.704-11.779-22.304 2.414-5.602 6.614-12.143 2.414-17.5-4.2-5.359-17.887-27.157-16.005-35.701 1.884-8.545 10.212-22.594 20.254-36.497 10.041-13.904 1.157-32.636 2.315-32.636s18.73 16.414 17.187 25.104c-1.544 8.69-14.646 30.606-16.524 36.115-1.684 10.164-0.202 14.286 3.2 21.455 0 0-0.288 0.58-1.737-0.869-1.447-1.448-9.749-8.869-8.254-16.945 0.796-5.358 3.766-13.687 6.47-19.046 0 0-14.726 19.457-11.539 25.829 3.186 6.372 11.491 15.254 15.448 19.31 3.959 4.057 3.38 18.732-3.767 31.863-1.834 4.152 7.58 11.056 9.173 14.821s-5.07 15.4-12.457 21.676z" enable-background="new " fill="#fff" opacity=".3"/>
 <path d="m1296.7 707.06s4.53-7.108 3.229-11.193c-1.302-4.086-7.238-14.929-3.182-20.682 4.059-5.751 1.956-23.131 0.529-26.146 0 0 9.4 14.865 6.9 22.453-3.976 12.071 0 15.555 0.498 20.051 0.499 4.496-3.24 11.347-7.974 15.517z" enable-background="new " fill="#fff" opacity=".3"/>
 <path d="m1306.2 639.62s-7.975-13.471-5.775-17.412c2.2-3.939 6.965-12.921 6.6-21.442 0 0 0.723 13.729-2.385 21.536-3.104 7.805 1.56 17.318 1.56 17.318z" enable-background="new " fill="#fff" opacity=".3"/>
 <rect x="1283.1" y="238.66" width="345.08" height="226.62" fill="#fff"/>
 <polygon points="1488.2 232.3 1455.7 149.04 1423.1 232.3 1418.8 228.64 1453.4 140.18 1455.7 136.92 1458 140.35 1492.5 228.64" fill="#046781"/>
 <polyline points="1628.2 465.28 1283.1 238.66 1628.2 238.66 1628.2 465.28" enable-background="new " fill="#E3E3E3" opacity=".5"/>
 <path d="m1264.4 220.13v263.68h382.59v-263.68h-382.59zm363.84 245.15h-345.08v-226.62h345.08v226.62z" fill="#046781"/>
 <path d="m1278.8 233.98v235.99h353.78v-235.99h-353.78zm349.43 231.31h-345.08v-226.62h345.08v226.62z" fill="#055166"/>
 <circle cx="1455.7" cy="142.59" r="7.129" fill="#055166"/>
 <g fill="#046781">
  <path d="m1491.8 373.83c1.686-1.353 3.291-2.829 4.644-4.519 1.151-1.442 2.226-3.042 2.69-4.85 0.471-1.813 0.362-3.6-0.369-5.329-0.865-2.046-2.543-3.779-4.291-5.1-2.271-1.715-4.937-2.667-7.639-3.474-2.65-0.792-5.375-1.347-8.092-1.864-6.823-1.295-13.703-2.265-20.534-3.512-3.403-0.62-6.798-1.302-10.154-2.145-1.457-0.364-2.903-0.766-4.337-1.213-0.119-0.039-0.236-0.078-0.354-0.118-0.355-0.121-0.709-0.244-1.062-0.373-0.646-0.235-1.287-0.486-1.92-0.755-0.376-0.159-0.748-0.327-1.116-0.501-0.02-0.01-0.04-0.02-0.06-0.029-0.21-0.11-0.422-0.225-0.629-0.343-0.368-0.207-0.728-0.428-1.078-0.658-0.14-0.104-0.274-0.21-0.407-0.319-0.154-0.126-0.308-0.258-0.454-0.393-0.01-9e-3 -0.019-0.018-0.027-0.024-0.195-0.217-0.381-0.443-0.556-0.679-5e-3 -9e-3 -0.011-0.018-0.015-0.024-0.058-0.1-0.112-0.2-0.163-0.302-0.101-0.208-0.188-0.423-0.265-0.644-0.112-0.534-0.144-1.081-0.094-1.625 0.355-1.895 1.396-3.649 2.495-5.213 2.673-3.643 6.154-6.875 10.022-9.218 0.929-0.532 1.891-1.007 2.896-1.375 0.193-0.07 0.391-0.133 0.586-0.194 0.322 1.575 0.188 3.237-0.038 4.813 0.021-0.142 0.04-0.282 0.063-0.421-0.103 0.707 2e-3 1.17 0.477 1.751 0.58 0.71 1.403 1.222 2.245 1.562 0.84 0.339 1.788 0.544 2.699 0.437 0.469-0.057 1.479-0.326 1.571-0.946 0.444-3.006 0.744-6.752-1.585-9.135-1.697-1.735-3.776-2.659-6.167-2.979-1.482-0.197-3.019 0.098-4.435 0.516-2.778 0.82-5.35 2.532-7.62 4.293-2.063 1.6-3.979 3.418-5.666 5.415 1.113-3.503 2-7.262 1.427-10.936-0.163-1.05-1.027-1.813-1.898-2.329-0.582-0.342-1.201-0.592-1.857-0.751-0.695-0.166-1.77-0.318-2.446 0.04-2.247 1.191-4.581 2.211-7.014 2.97-0.535 0.166-1.076 0.314-1.618 0.453-0.14 0.031-0.278 0.062-0.417 0.092-0.306 0.064-0.611 0.123-0.918 0.177-1.16 0.208-2.336 0.331-3.514 0.375-0.084 0-0.168 1e-3 -0.252 0-0.307-2e-3 -0.61-0.015-0.918-0.029-0.587-0.028-1.172-0.086-1.754-0.164-0.076-0.014-0.152-0.025-0.229-0.041-0.308-0.058-0.607-0.125-0.909-0.194-0.304-0.071-0.606-0.153-0.907-0.237-0.06-0.017-0.115-0.034-0.172-0.051-0.533-0.185-1.057-0.394-1.572-0.618-0.111-0.049-0.329-0.152-0.503-0.235-0.175-0.093-0.348-0.187-0.521-0.284-0.563-0.313-1.106-0.655-1.642-1.015-0.125-0.091-0.249-0.183-0.372-0.276-0.294-0.221-0.58-0.449-0.859-0.683-1.284-1.053-3.416-1.882-5.063-1.242-1.635 0.633-0.784 2.336 0.191 3.138 5.017 4.115 11.337 6.715 17.876 6.68 3.417-0.02 6.747-0.63 9.947-1.686-0.745 3.639-2.193 7.085-3.293 10.629-5.108-2.349-11.268-3.373-15.918 0.269-1.146 0.896-2.092 2.072-2.832 3.354-0.062-0.546-0.149-1.09-0.271-1.629-0.545-2.44-1.583-4.719-2.896-6.838-1.99-3.207-4.446-6.042-6.851-8.928l2e-3 -2e-3c0.127-0.174 0.254-0.349 0.384-0.521 0.401-0.539 0.549-0.966 0.245-1.624-0.345-0.746-1.041-1.317-1.731-1.727-0.795-0.469-1.704-0.79-2.627-0.881-0.027-0.038-0.056-0.076-0.08-0.114-0.214-0.305-0.423-0.613-0.627-0.925-0.121-0.196-0.242-0.396-0.362-0.596-0.822-1.393-1.513-2.862-2.011-4.402-0.235-0.729-1.119-1.364-1.731-1.729-0.837-0.494-1.801-0.823-2.771-0.894-0.688-0.05-1.523 0.018-2.07 0.5-0.528 0.467-0.438 1.03-0.247 1.624 1.174 3.627 3.376 6.808 5.762 9.784-2.241 3.447-4.047 7.14-5.357 11.066-1.63 4.89-2.483 10.035-2.819 15.169-0.293 4.474-0.161 8.956 0.271 13.415-0.298 0.079-0.574 0.216-0.825 0.413-0.486 0.43-0.502 1.07-0.247 1.625 0.312 0.67 0.855 1.193 1.492 1.596 0.603 4.537 1.487 9.044 2.531 13.479 1.366 5.828 3.037 11.584 4.823 17.295 0.229 0.728 1.125 1.368 1.731 1.729 0.836 0.493 1.801 0.823 2.771 0.895 0.688 0.049 1.524-0.017 2.071-0.5 0.531-0.469 0.433-1.027 0.246-1.623-0.929-2.967-1.82-5.945-2.656-8.938-1.825-6.63-3.373-13.373-4.298-20.194 1.938 0.447 3.88 0.875 5.815 1.318 1.832 0.419 3.661 0.851 5.478 1.324 0.892 0.232 1.778 0.477 2.661 0.733 0.417 0.123 0.833 0.248 1.248 0.376 0.018 5e-3 0.032 0.01 0.047 0.015 0.143 0.046 0.284 0.093 0.427 0.141 1.632 0.547 3.239 1.168 4.8 1.896 0.052 0.025 0.104 0.05 0.157 0.075 0.029 0.018 0.063 0.033 0.096 0.049 0.374 0.193 0.745 0.396 1.108 0.604 0.332 0.189 0.659 0.389 0.982 0.593 0.16 0.102 0.317 0.205 0.477 0.309 7e-3 6e-3 0.017 0.012 0.024 0.018 0.563 0.41 1.104 0.85 1.619 1.314 0.106 0.098 0.213 0.198 0.317 0.299 0.249 0.259 0.486 0.526 0.717 0.801 0.229 0.274 0.448 0.559 0.657 0.848 0.098 0.133 0.188 0.269 0.281 0.404 7e-3 0.012 0.017 0.022 0.021 0.035 0.395 0.651 0.73 1.337 1.021 2.042 0.181 0.438 0.335 0.888 0.473 1.342 0.387 1.513 0.557 3.062 0.563 4.616-1.468 0.726-2.913 1.502-4.328 2.339-3.559 2.103-6.897 4.69-9.44 7.975-1.354 1.746-2.74 3.717-3.189 5.922-0.394 1.945-0.02 3.775 1.277 5.319 0.758 0.905 1.676 1.615 2.676 2.191l-9e-3 -2e-3s3.409 3.383 1.533 16.232c-0.724 5.271 2.763 6.141 3.212 0.831 0.412-4.854-2.269-14.282-1.019-15.503 0.049 0.014 0.094 0.028 0.14 0.042 0.696 0.213 1.411 0.378 2.136 0.508 0.509 0.091 1.021 0.165 1.535 0.226 2.615 0.63 7.688 3.042 8.019 12.267 0.519 14.49-4.374 26.518-2.553 31.075 1.824 4.557 6.926 2.552 5.832-13.669-1.043-15.494-1.17-28.527 11.3-32.857 0.597-0.176 1.188-0.354 1.782-0.536 0.021-5e-3 0.037-0.01 0.056-0.016l-0.011 1e-3c2.057-0.629 4.104-1.287 6.145-1.962 6.087-2.016 12.109-4.221 18.056-6.619 6.1-2.459 12.122-5.126 17.963-8.151 5.125-2.666 10.229-5.579 14.742-9.209zm-81.601-33.801c0.352-2.16 1.08-4.283 2.319-6.097 0.69-0.903 1.519-1.694 2.475-2.311 0.289-0.154 0.584-0.293 0.888-0.416 0.196-0.079 0.397-0.149 0.601-0.215 0.082-0.025 0.163-0.05 0.246-0.073 0.399-0.079 0.806-0.13 1.21-0.157 0.02-1e-3 0.038-1e-3 0.059-2e-3 0.26 5e-3 0.521 0.021 0.778 0.044 0.095 9e-3 0.228 0.024 0.354 0.042 0.151 0.03 0.303 0.063 0.453 0.098 0.245 0.056 0.485 0.121 0.727 0.189 0.054 0.02 0.104 0.038 0.158 0.057 0.456 0.166 0.903 0.353 1.346 0.552 0.223 0.112 0.575 0.29 0.74 0.38 0.084 0.046 0.166 0.096 0.25 0.143-0.748 4.021-0.594 8.206 0.306 12.209-0.565 2.189-1.296 4.391-2.569 6.273-0.543 0.708-1.175 1.335-1.917 1.829-0.356 0.184-0.721 0.333-1.104 0.452-0.05 9e-3 -0.101 0.016-0.148 0.023-0.188 0.027-0.38 0.05-0.568 0.069-0.146 0.016-0.289 0.026-0.435 0.036-0.204 0-0.564 0-0.737-0.011-0.118-7e-3 -0.237-0.02-0.355-0.031-0.187-0.033-0.413-0.076-0.55-0.109-0.027-8e-3 -0.058-0.016-0.085-0.022-0.126-0.047-0.252-0.098-0.376-0.152-0.025-0.013-0.051-0.025-0.075-0.041-0.101-0.057-0.25-0.152-0.383-0.239-0.187-0.147-0.368-0.301-0.546-0.459-0.105-0.109-0.226-0.235-0.299-0.319-0.187-0.212-0.36-0.434-0.529-0.659-0.113-0.147-0.221-0.301-0.323-0.456-0.074-0.126-0.148-0.252-0.221-0.38-0.532-0.958-0.94-1.98-1.256-3.031-0.608-2.348-0.743-4.813-0.434-7.216zm-24.045 9.686c-0.019-0.383-0.035-0.765-0.05-1.146-0.159-4.249 9e-3 -8.516 0.599-12.729 0.901-5.93 2.714-11.682 5.558-16.927 0.563 0.699 1.115 1.407 1.649 2.131 0.337 0.457 0.664 0.925 0.983 1.396 0.06 0.087 0.207 0.316 0.301 0.459 0.122 0.199 0.242 0.399 0.359 0.602 0.588 1 1.104 2.041 1.533 3.116 0.203 0.509 0.38 1.026 0.537 1.55 0.457 1.831 0.54 3.74 0.313 5.61-0.504 3.073-1.823 5.936-3.601 8.479-2.208 2.988-5.018 5.512-8.181 7.459zm56.094 41.486c-5.368 1.914-10.789 3.693-16.266 5.265-1.102 0.314-2.201 0.62-3.307 0.913-0.499 0.133-1 0.262-1.498 0.388-0.229 0.057-0.454 0.112-0.682 0.168-0.072 0.019-0.146 0.036-0.218 0.054-1.359 0.321-2.731 0.623-4.116 0.809-1.028 0.137-2.072 0.166-3.109 0.19-0.012 1e-3 -0.021 1e-3 -0.034 1e-3 -0.232 2e-3 -0.467 2e-3 -0.699 0-0.424-2e-3 -0.851-0.012-1.274-0.027-0.864-0.032-1.726-0.099-2.583-0.203-0.097-0.013-0.191-0.025-0.288-0.039-0.022-4e-3 -0.048-8e-3 -0.069-0.014-0.37-0.066-0.735-0.147-1.101-0.239-0.088-0.022-0.176-0.046-0.263-0.071-0.13-0.05-0.293-0.121-0.438-0.187-0.022-0.013-0.046-0.026-0.068-0.041-0.013-0.018-0.026-0.034-0.041-0.052-0.063-0.121-0.115-0.245-0.162-0.372-0.077-0.416-0.089-0.835-0.05-1.258 0.328-1.673 1.234-3.197 2.204-4.582 1.807-2.445 4.053-4.505 6.512-6.277-0.155 1.464 1.609 2.574 2.772 3.044 0.841 0.341 1.789 0.545 2.7 0.437 0.54-0.065 1.399-0.321 1.571-0.946 0.653-2.352 1.16-4.813 1.317-7.283 6.412-2.952 13.282-4.957 20.055-6.832 3.847-1.063 7.715-2.057 11.537-3.202 0.578-0.173 1-0.733 0.951-1.339-0.059-0.727-0.612-1.356-1.144-1.798-1.354-1.131-3.335-1.76-5.059-1.243-8.321 2.492-16.797 4.416-24.977 7.373-0.628 0.227-1.252 0.459-1.873 0.7-0.747-3.018-2.248-5.81-4.419-8.057-5.522-5.709-13.382-8.273-20.89-10.194-2.279-0.583-4.574-1.104-6.87-1.62 2.421-1.24 4.672-2.814 6.692-4.665 2.332-2.131 4.415-4.7 5.885-7.554 0.175 2.144 0.706 4.291 1.573 6.246 1.225 2.757 3.188 4.932 5.648 6.639 2.863 1.989 6.479 2.735 9.913 2.548 2.253-0.122 4.418-0.91 6.034-2.521 0.348-0.345 0.663-0.714 0.955-1.104 0.109 0.246 0.26 0.479 0.416 0.687 0.177 0.235 0.352 0.469 0.529 0.702 0.408 0.584 0.837 1.156 1.279 1.71 1.099 1.369 3.207 2.204 4.943 1.998 0.607-0.073 1.321-0.322 1.573-0.946 0.259-0.642-0.103-1.277-0.478-1.773-0.375-0.502-0.753-1.005-1.128-1.506-0.155-0.223-0.312-0.447-0.463-0.675-0.064-0.103-0.145-0.228-0.179-0.283-0.12-0.192-0.231-0.388-0.346-0.583-0.254-0.437-0.49-0.882-0.721-1.332-0.821-1.607-1.473-3.298-1.979-5.029-0.82-3.092-1.182-6.352-1.008-9.56 0.262 0.412 0.558 0.803 0.862 1.162 1.98 2.34 4.705 3.875 7.443 5.155 2.896 1.354 6 2.296 9.082 3.127 6.755 1.821 13.693 2.929 20.591 4.063 6.204 1.02 12.491 1.891 18.572 3.529 0.479 0.129 0.955 0.269 1.428 0.413 0.055 0.019 0.108 0.036 0.162 0.055 0.256 0.089 0.511 0.183 0.768 0.279 0.322 0.124 0.644 0.256 0.959 0.398 0.016 8e-3 0.03 0.017 0.047 0.023 0.129 0.071 0.258 0.147 0.385 0.227 0.17 0.133 0.338 0.27 0.504 0.409 0.152 0.129 0.297 0.261 0.441 0.396 0.012 0.013 0.023 0.024 0.035 0.038 0.277 0.301 0.533 0.62 0.771 0.954 0.095 0.163 0.18 0.329 0.261 0.497 0.117 0.244 0.219 0.495 0.303 0.751 0.147 0.669 0.182 1.354 0.111 2.035-0.271 1.417-0.945 2.728-1.762 3.908-2.695 3.633-6.575 6.382-10.335 8.8-0.892 0.571-1.794 1.126-2.703 1.667-5.392 3.156-11.038 5.872-16.758 8.378-6.039 2.649-12.2 5.053-18.426 7.271z"/>
  <path d="m1538.6 338.13c0-33.402-27.078-60.48-60.48-60.48-22.599 0-42.303 12.397-52.684 30.76 0.028-0.026 5.41-2.932 7.221-2.38 1.813 0.556 3.513 2.546 3.513 2.546l0.497-1.063c5.931-8.058 13.844-14.493 23.145-18.203 1.886-0.422 5.412-0.149 5.269 7.896-0.197 10.952-2.122 10.015-0.987 11.051s2.565-0.444 2.171-4.392c-0.395-3.946-1.017-16.564 4.933-17.542 0.218-0.035 0.416-0.072 0.599-0.109 2.063-0.262 4.175-0.398 6.327-0.398 28.895 0 52.316 23.422 52.316 52.315s-23.424 52.314-52.316 52.314c-2.124 0-3.229-0.021-5.287-0.267l-13.391 5.492c5.285 1.713 12.135 2.939 18.678 2.939 7.732 0 15.129-1.453 21.928-4.099 0.039-0.014 9.115-3.286 9.115 11.121 0 14.44-5.67 21.925-3.403 24.874 2.27 2.947 8.847-0.455 6.354-23.36-1.332-12.222-1.419-16.675-1.033-18.299 16.562-10.787 27.515-29.472 27.515-50.716z"/>
  <path d="m1463.1 327.38c-1.153 0.162-2.338 0.465-3.353 1.048-0.937 0.538-1.744 1.221-2.19 2.233-0.465 1.055-0.326 2.195-4e-3 3.26 0.431 1.418 1.388 2.697 2.354 3.794 0.977 1.104 2.068 2.045 3.292 2.863 2.088 1.396 4.593 2.216 7.089 2.431 1.225 0.105 2.497 0.046 3.747-0.186 0.403 0.82 0.831 1.63 1.288 2.424 0.504 0.878 1.531 1.399 2.527 1.473 0.387 0.027 0.854-0.011 1.161-0.281 0.257-0.224 0.308-0.618 0.138-0.911-0.695-1.214-1.326-2.461-1.914-3.727 1.473-0.699 2.785-1.694 3.77-3 1.052-1.396 1.67-2.983 1.762-4.709 0.874 2.207 1.762 4.409 2.434 6.687 0.02 0.059 0.037 0.117 0.054 0.175 0.114 0.404 0.639 0.772 0.972 0.971 0.469 0.276 1.012 0.462 1.555 0.502 0.388 0.027 0.857-0.011 1.164-0.28 0.304-0.268 0.235-0.573 0.138-0.912-1.337-4.611-3.55-8.917-4.858-13.539-0.199-0.742-0.374-1.491-0.511-2.247 0.162 0.146 0.319 0.296 0.479 0.448 0.015 0.014 0.028 0.03 0.043 0.044 0.097 0.099 0.188 0.198 0.281 0.299 0.203 0.22 0.402 0.445 0.598 0.673 0.771 0.906 1.47 1.874 2.131 2.861 0.162 0.242 0.322 0.485 0.479 0.729 0.021 0.033 0.042 0.066 0.062 0.1 0.094 0.145 0.187 0.292 0.276 0.438 0.326 0.526 0.646 1.058 0.964 1.59 2.252 3.778 4.357 7.866 7.722 10.801 0.633 0.552 1.605 0.892 2.444 0.792 0.617-0.073 1.148-0.527 0.836-1.184-0.453-0.948-0.797-1.943-1.084-2.954-0.168-0.619-0.313-1.246-0.44-1.876 0.654 0.731 1.373 1.357 2.14 1.952 1.855 1.441 3.978 2.403 6.11 3.154 1.853 0.65 3.835 1.087 5.779 1.066 1.009-0.011 1.958-0.104 2.933-0.427 0.622-0.208 1.274-0.579 1.721-1.128 0.325-0.407 0.588-0.895 0.663-1.445 0.114-0.828 0.027-1.482-0.188-2.286-0.134-0.492-0.675-0.932-1.033-1.173-0.498-0.337-1.073-0.561-1.651-0.608-0.408-0.034-0.908 0.012-1.233 0.34-0.255 0.254-0.267 0.544-0.206 0.855l-6e-3 -0.021c2e-3 0.011 6e-3 0.022 0.01 0.035 5e-3 0.036 0.015 0.074 0.023 0.112 0.066 0.33 0.104 0.665 0.088 1.002-0.045 0.213-0.116 0.416-0.213 0.604-0.131 0.168-0.275 0.314-0.438 0.44-0.203 0.116-0.414 0.21-0.633 0.287-0.033 0.012-0.063 0.021-0.098 0.031-0.168 0.039-0.337 0.068-0.506 0.094-0.173 0.024-0.35 0.042-0.525 0.055-0.065 5e-3 -0.133 8e-3 -0.197 0.011-0.401-2e-3 -0.801-0.029-1.2-0.071-0.209-0.021-0.418-0.051-0.626-0.081-0.044-7e-3 -0.089-0.015-0.133-0.021-0.024-4e-3 -0.047-9e-3 -0.07-0.014-0.46-0.093-0.916-0.205-1.37-0.333-0.22-0.063-0.44-0.132-0.661-0.202-0.117-0.038-0.375-0.129-0.527-0.184-0.35-0.136-0.693-0.281-1.036-0.437-0.356-0.162-0.707-0.335-1.056-0.521-0.023-0.014-0.052-0.027-0.076-0.042-0.164-0.096-0.325-0.194-0.487-0.296-0.332-0.209-0.66-0.433-0.978-0.67-0.037-0.026-0.072-0.055-0.107-0.083-0.124-0.104-0.246-0.209-0.366-0.317-0.212-0.192-0.416-0.396-0.614-0.608-0.042-0.051-0.084-0.103-0.126-0.157-0.11-0.139-0.216-0.286-0.315-0.435-0.039-0.057-0.077-0.115-0.114-0.173-0.05-0.097-0.128-0.237-0.162-0.314-0.104-0.224-0.188-0.458-0.259-0.699-0.165-0.826-0.155-1.714-0.065-2.554 0.185-1.249 0.574-2.437 1.108-3.54 0.238 0.729 1.109 1.356 1.617 1.542 3.606 1.32 7.416 2.67 11.215 1.605 2.621-0.735 5.441-3.415 4.617-6.825-0.947-3.928-4.649-6.191-7.967-6.764-2.632-0.454-5.403 0.383-7.693 1.854-2.086 1.339-3.896 3.134-5.248 5.367 0.353-1.58 0.912-3.124 1.826-4.457 0.377-0.505 0.811-0.967 1.305-1.362 0.759-0.609-0.344-1.591-0.834-1.881-0.727-0.429-1.971-0.821-2.719-0.221-1.592 1.277-2.588 3.191-3.181 5.113-0.692 2.262-0.925 4.68-0.933 7.037-2e-3 1.551 0.105 3.102 0.313 4.639-0.725-1.228-1.438-2.459-2.189-3.672-2.507-4.052-5.493-8.063-10.077-9.872-0.478-0.188-1.002-0.307-1.515-0.245-0.463 0.055-0.961 0.308-0.93 0.846 0.092 1.591 0.391 3.159 0.806 4.701-0.734-1.02-1.593-1.936-2.48-2.819-1-0.999-2.086-1.877-3.256-2.669-2.521-1.704-5.882-2.845-8.865-1.762-0.937 0.338-0.423 1.318 0.105 1.76 0.727 0.607 1.907 1.036 2.841 0.698 0.132-0.048 0.264-0.089 0.396-0.128 0.063-0.012 0.127-0.023 0.191-0.034 0.15-0.025 0.303-0.039 0.457-0.05h0.012c0.045 1e-3 0.09 2e-3 0.135 4e-3 0.132 5e-3 0.263 0.018 0.395 0.033 0.028 5e-3 0.059 0.012 0.087 0.018 0.15 0.032 0.298 0.069 0.444 0.11 0.025 0.01 0.054 0.02 0.081 0.029 0.151 0.056 0.301 0.118 0.451 0.181 0.059 0.025 0.161 0.074 0.245 0.115 0.244 0.127 0.48 0.267 0.714 0.41 0.144 0.088 0.284 0.183 0.426 0.276 0.015 0.01 0.032 0.021 0.047 0.032 6e-3 3e-3 0.011 7e-3 0.017 0.011 0.299 0.216 0.586 0.445 0.871 0.68 0.26 0.216 0.514 0.438 0.762 0.666 0.121 0.111 0.242 0.227 0.36 0.341 0.06 0.055 0.113 0.109 0.171 0.163 0.433 0.439 0.847 0.896 1.243 1.367 0.415 0.489 0.798 1.007 1.148 1.542 0.03 0.049 0.061 0.098 0.091 0.146 0.072 0.124 0.146 0.25 0.217 0.375 0.148 0.264 0.284 0.533 0.411 0.805 0.224 0.473 0.409 0.962 0.56 1.462 0.254 1 0.342 2.032 0.221 3.058-0.188 1.104-0.62 2.146-1.252 3.069-0.49 0.649-1.068 1.222-1.709 1.716-1.387-3.272-2.695-6.583-4.438-9.685-0.845-1.504-1.788-2.961-2.87-4.306-0.617-0.769-1.797-1.237-2.774-1.121-0.341 0.042-0.739 0.182-0.882 0.53-0.143 0.353 0.052 0.728 0.268 0.995 0.467 0.583 0.908 1.186 1.326 1.806 0.068 0.104 0.137 0.208 0.205 0.313 0.052 0.081 0.174 0.272 0.211 0.33 6e-3 0.011 0.013 0.022 0.018 0.033-1.242-0.118-2.499-0.106-3.72 0.067zm46.125 13.634c-0.021-3e-3 -0.043-7e-3 -0.064-0.013 0.452 0.078 0.214 0.04 0.064 0.013zm-2.519-17.213c0.939-0.605 1.934-1.094 2.975-1.423 0.043-0.013 0.112-0.032 0.174-0.052 0.086-0.02 0.168-0.039 0.252-0.059 0.278-0.062 0.56-0.106 0.843-0.141 0.141-0.017 0.278-0.027 0.419-0.038 0.031-2e-3 0.063-4e-3 0.094-6e-3 0.239 3e-3 0.48 0.02 0.719 0.045 0.034 5e-3 0.069 0.01 0.104 0.015 0.056 0.011 0.112 0.021 0.153 0.032 0.117 0.027 0.234 0.062 0.353 0.097 0.117 0.051 0.233 0.104 0.351 0.162 0.033 0.016 0.065 0.033 0.099 0.05 0.116 0.071 0.231 0.145 0.344 0.222 0.056 0.036 0.144 0.104 0.221 0.163 0.148 0.131 0.292 0.271 0.431 0.416 0.015 0.018 0.028 0.033 0.043 0.051 0.097 0.12 0.188 0.248 0.275 0.376 0.035 0.054 0.104 0.165 0.149 0.244 0.032 0.066 0.063 0.133 0.095 0.2 0.094 0.207 0.17 0.423 0.235 0.645 0.077 0.403 0.104 0.813 0.073 1.224-0.092 0.51-0.27 0.985-0.518 1.424-0.398 0.578-0.896 1.046-1.439 1.438-0.35 0.212-0.719 0.379-1.094 0.52-0.092 0.035-0.187 0.064-0.277 0.096-0.027 8e-3 -0.057 0.018-0.082 0.025-0.208 0.05-0.418 0.088-0.631 0.121-0.223 0.035-0.447 0.056-0.674 0.072-0.024 1e-3 -0.051 3e-3 -0.074 4e-3 -0.071 1e-3 -0.16 3e-3 -0.209 2e-3 -0.46-6e-3 -0.922-0.051-1.377-0.114-0.085-0.012-0.172-0.025-0.258-0.039-0.224-0.044-0.447-0.094-0.672-0.147-0.455-0.106-0.907-0.235-1.356-0.372-0.442-0.135-0.883-0.282-1.319-0.435-0.215-0.074-0.429-0.15-0.641-0.227-0.092-0.032-0.182-0.065-0.271-0.099-0.152-0.055-0.15-0.054 8e-3 3e-3 -0.489-0.176-0.963-0.322-1.489-0.251-0.063 0.01-0.134 0.022-0.204 0.041 1.126-1.723 2.564-3.173 4.175-4.285zm-40.225 6.111c0.048-1e-3 0.096-3e-3 0.145-5e-3 0.563-2e-3 1.125 0.033 1.684 0.093 0.402 0.79 0.781 1.589 1.147 2.396 1.138 2.497 2.144 5.05 3.245 7.562-0.054 0.018-0.107 0.035-0.161 0.052-0.106 0.031-0.214 0.061-0.321 0.09-0.024 7e-3 -0.052 0.013-0.08 0.02-0.205 0.046-0.412 0.086-0.623 0.12-0.469 0.079-0.941 0.125-1.416 0.147-0.024 0-0.049 2e-3 -0.072 3e-3 -0.071 0-0.143-1e-3 -0.211-3e-3 -0.254-4e-3 -0.506-0.02-0.756-0.038-0.202-0.018-0.402-0.04-0.604-0.066-0.134-0.024-0.268-0.051-0.4-0.08-0.233-0.05-0.466-0.108-0.697-0.174-0.04-0.011-0.079-0.023-0.12-0.035-0.05-0.018-0.1-0.035-0.148-0.052-0.231-0.083-0.461-0.175-0.686-0.273-0.084-0.035-0.167-0.072-0.248-0.11-0.013-7e-3 -0.021-0.012-0.032-0.018-0.263-0.137-0.52-0.287-0.771-0.442-0.103-0.065-0.204-0.133-0.306-0.199-0.022-0.019-0.048-0.036-0.072-0.054-0.252-0.187-0.491-0.383-0.729-0.585-0.118-0.105-0.236-0.211-0.354-0.32-0.047-0.044-0.095-0.091-0.143-0.137-0.599-0.618-1.151-1.288-1.628-2.004-0.058-0.092-0.11-0.186-0.164-0.279-0.087-0.155-0.169-0.313-0.245-0.476-0.131-0.27-0.237-0.549-0.327-0.835-0.101-0.428-0.144-0.865-0.104-1.304 0.08-0.405 0.233-0.785 0.457-1.131 0.304-0.382 0.678-0.697 1.09-0.959 0.36-0.197 0.74-0.356 1.133-0.489 0.121-0.041 0.243-0.078 0.368-0.114 0.051-0.014 0.159-0.042 0.238-0.061 0.204-0.044 0.411-0.081 0.619-0.112 0.282-0.043 0.566-0.074 0.854-0.097 0.144-0.015 0.29-0.024 0.438-0.031z"/>
 </g>
</svg>
